<svg viewBox="0 0 32 32" fill="none" xmlns="http://www.w3.org/2000/svg">
<path d="M10.0004 16L7.32827 19.5628C6.55832 20.5894 6.62875 22.0188 7.49585 22.9648L12.5411 28.4686C13.0461 29.0196 13.7581 29.3333 14.5056 29.3333C15.9539 29.3333 18.3224 29.3333 20.6671 29.3333C23.8671 29.3333 26.0004 26.6666 26.0004 24C26.0004 24 26.0004 14.8572 26.0004 12.5714" stroke="currentColor" stroke-width="1.5" stroke-linecap="round" stroke-linejoin="round"/>
<path d="M22 13.3333C22 13.3333 22 13.1664 22 12.5714C22 9.52374 26 9.52374 26 12.5714" stroke="currentColor" stroke-width="1.5" stroke-linecap="round" stroke-linejoin="round"/>
<path d="M18 13.3333C18 13.3333 18 12.2377 18 11.0476C18 7.99993 22 7.99993 22 11.0476C22 11.3451 22 12.2738 22 12.5714C22 13.1665 22 13.3333 22 13.3333" stroke="currentColor" stroke-width="1.5" stroke-linecap="round" stroke-linejoin="round"/>
<path d="M14 13.3335C14 13.3335 14 11.4878 14 10.0001C14 6.95245 18 6.95245 18 10.0001C18 10.0001 18 10.7501 18 11.0477C18 12.2379 18 13.3335 18 13.3335" stroke="currentColor" stroke-width="1.5" stroke-linecap="round" stroke-linejoin="round"/>
<path d="M14 13.3333C14 13.3333 14 11.4877 14 9.99996C14 8.45537 14 6.25287 14 4.66528C14 3.56071 13.1046 2.66663 12 2.66663C10.8954 2.66663 10 3.56205 10 4.66663V16V20" stroke="currentColor" stroke-width="1.5" stroke-linecap="round" stroke-linejoin="round"/>
</svg>
