<svg xmlns="http://www.w3.org/2000/svg" viewBox="0 0 67.96 32.58">
    <path
        d="M3.33,3.32a1.6,1.6,0,0,0,.48-1.18A1.52,1.52,0,0,0,3.33,1,1.58,1.58,0,0,0,2.15.5,1.58,1.58,0,0,0,1,1,1.52,1.52,0,0,0,.5,2.14,1.62,1.62,0,0,0,2.15,3.79,1.61,1.61,0,0,0,3.33,3.32Zm.16,12V5H.8V15.32ZM13.41.86V6.15a4,4,0,0,0-3.15-1.46A4.91,4.91,0,0,0,6.58,6.24a5.54,5.54,0,0,0-1.46,3.89A5.57,5.57,0,0,0,6.58,14a4.86,4.86,0,0,0,3.68,1.54A4,4,0,0,0,13.47,14v1.28H16.1V.86ZM12.75,8a3,3,0,0,1,.8,2.12,3.1,3.1,0,0,1-.8,2.15,2.71,2.71,0,0,1-2.08.85,2.77,2.77,0,0,1-2.09-.85,3.1,3.1,0,0,1-.8-2.15A3,3,0,0,1,8.58,8a2.75,2.75,0,0,1,2.09-.87A2.7,2.7,0,0,1,12.75,8ZM26.22,6.19V5h2.55V15.32H26.22v-1.2a4.34,4.34,0,0,1-3.31,1.45A4.8,4.8,0,0,1,19.22,14a5.53,5.53,0,0,1-1.45-3.92,5.32,5.32,0,0,1,1.47-3.86,4.83,4.83,0,0,1,3.67-1.54A4.34,4.34,0,0,1,26.22,6.19Zm0,3.94A3,3,0,0,0,25.42,8a2.93,2.93,0,0,0-4.17,0,3.06,3.06,0,0,0-.8,2.12,3.05,3.05,0,0,0,.82,2.13,2.91,2.91,0,0,0,4.15,0A3,3,0,0,0,26.26,10.13Zm10.39,5.35a1.67,1.67,0,0,1-2.84,1.18,1.63,1.63,0,0,1-.47-1.18,1.57,1.57,0,0,1,.47-1.16,1.72,1.72,0,0,1,2.36,0A1.54,1.54,0,0,1,36.65,15.48ZM16.19,28.66H13.51V18.3h2.57v1.39A3.05,3.05,0,0,1,18.93,18a3.73,3.73,0,0,1,1.26.23L20,20.81a4.29,4.29,0,0,0-1.24-.21,2.31,2.31,0,0,0-1.86.8,3.55,3.55,0,0,0-.67,2.34ZM6.72,18a4.77,4.77,0,0,1,3.65,1.58,5.45,5.45,0,0,1,1.45,3.86,5.45,5.45,0,0,1-1.47,3.86A4.74,4.74,0,0,1,6.7,28.91a4.26,4.26,0,0,1-3.25-1.44v5.46H.77V18.3H3.43v1.27A4.17,4.17,0,0,1,6.72,18Zm-.47,8.43a2.72,2.72,0,0,0,2.07-.86,3.18,3.18,0,0,0,0-4.22,2.72,2.72,0,0,0-2.07-.86,2.69,2.69,0,0,0-2.06.86,3.18,3.18,0,0,0,0,4.22A2.69,2.69,0,0,0,6.25,26.46ZM22,19.61a5.25,5.25,0,0,0-1.56,3.86A5.26,5.26,0,0,0,22,27.35a5.41,5.41,0,0,0,4,1.58,5.43,5.43,0,0,0,4-1.58,5.26,5.26,0,0,0,1.56-3.88A5.25,5.25,0,0,0,30,19.61,5.37,5.37,0,0,0,26,18,5.35,5.35,0,0,0,22,19.61Zm4,6.83a2.72,2.72,0,0,1-2.05-.86,2.94,2.94,0,0,1-.82-2.11,2.85,2.85,0,0,1,.82-2.09A2.72,2.72,0,0,1,26,20.52a2.76,2.76,0,0,1,2,.86,2.91,2.91,0,0,1,.84,2.09A3,3,0,0,1,28,25.58,2.76,2.76,0,0,1,26,26.44Zm22.58-2a9.83,9.83,0,0,0,.1-1.18,5,5,0,0,0-1.47-3.8,5.67,5.67,0,0,0-7.63.13,5.34,5.34,0,0,0-1.5,3.9,5.21,5.21,0,0,0,5.63,5.42,7.55,7.55,0,0,0,4.53-1.42l-1.07-1.89a5.8,5.8,0,0,1-3.34,1.05,2.79,2.79,0,0,1-3-2.21Zm-6.83-3.57a2.61,2.61,0,0,1,1.73-.59,2.47,2.47,0,0,1,1.71.59A2.59,2.59,0,0,1,46,22.42H40.76A2.83,2.83,0,0,1,41.71,20.85Zm13.51,8a5.41,5.41,0,0,1-3.95-1.52,5.19,5.19,0,0,1-1.54-3.9,5.17,5.17,0,0,1,1.56-3.9,5.49,5.49,0,0,1,4-1.54,5.57,5.57,0,0,1,2.89.76,4.65,4.65,0,0,1,1.94,2.13L58,22.1a2.94,2.94,0,0,0-2.64-1.58,2.77,2.77,0,0,0-2.11.86,2.83,2.83,0,0,0-.84,2.09,2.91,2.91,0,0,0,.82,2.13,2.8,2.8,0,0,0,2.07.84A3,3,0,0,0,56.84,26a2.64,2.64,0,0,0,1.08-1.12l2.17,1.27a4.83,4.83,0,0,1-2,2A5.63,5.63,0,0,1,55.22,28.89ZM33.66,18.3V28.68c0,1.18-.43,1.84-1.29,2l-.45,2.4h.45A3.83,3.83,0,0,0,35.26,32a4.3,4.3,0,0,0,1.08-3.15V18.3Zm28.71,6.34V20.53H60.66V18.28h1.71V14.61H65v3.67h3.42v2.25H65v4c0,1,.3,1.61.9,1.88a1.89,1.89,0,0,0,.38.12,6,6,0,0,0,1.33.13l.47,2.27H66.33a3.84,3.84,0,0,1-2.88-1.1A4.34,4.34,0,0,1,62.37,24.64Z"
        transform="translate(-0.5 -0.5)" fill="currentColor"/>
</svg>
