<svg xmlns="http://www.w3.org/2000/svg" fill="currentColor" viewBox="0 0 50.5 17">
    <path
        d="M47.2 0H0v3.3h1.9V1.9h43.3v1.8l1.9-.5.1-3.2zM45.3 12.3v2.8H1.9v-1.9H0V17h47.2v-3.5c-1-.1-1.6-.6-1.9-1.2zM0 12.2V4.3h1.9v7.9H0z"
    />
    <path
        d="M7.8 3.3h2v8.9h-2v-.7c-.5.6-1.1.8-1.8.8-.8 0-1.5-.3-2.1-.9-.5-.6-.8-1.4-.8-2.3 0-1 .3-1.8.8-2.4.6-.7 1.3-1 2.1-1s1.4.3 1.8.9V3.3zm-2.3 6.8c.3.3.6.4 1 .4s.7-.1 1-.4c.3-.3.4-.6.4-1.1 0-.4-.1-.8-.4-1.1-.3-.3-.6-.4-1-.4s-.7.2-1 .5c-.2.3-.4.6-.4 1.1 0 .4.2.7.4 1zM15.5 5.9h2v6.4h-2v-.7c-.5.6-1.1.8-1.8.8-.8 0-1.5-.3-2.1-.9-.5-.6-.8-1.4-.8-2.4s.3-1.8.8-2.4c.6-.6 1.2-.9 2-.9s1.4.3 1.8.9v-.8zm-2.3 4.2c.3.3.6.4 1 .4s.7-.1 1-.4c.3-.3.4-.6.4-1.1 0-.4-.1-.8-.4-1.1s-.6-.4-1-.4-.7.1-1 .4c-.3.3-.4.6-.4 1.1 0 .5.2.8.4 1.1zM22.7 4.9c-.6 0-1 .3-1 1h1.9v1.9h-1.9v4.5h-2V7.7h-1.1V5.9h1.1v-.2c0-.9.3-1.5.8-1.9.5-.4 1.2-.6 1.9-.6.6 0 1.1.1 1.6.3l-.3 1.6-.2-.1c-.3-.1-.5-.1-.8-.1zM28.6 5.7h.4v2h-.4c-.3 0-.5 0-.7.1-.2 0-.4.1-.6.2-.2.1-.3.3-.4.5-.1.2-.1.5-.1.9v2.8h-2V5.9h2v1c.3-.8.9-1.2 1.8-1.2zM30.5 6.7c.6-.6 1.4-1 2.4-1 .9 0 1.7.3 2.4 1 .6.6 1 1.4 1 2.4s-.3 1.8-1 2.4c-.6.6-1.4 1-2.4 1-.9 0-1.7-.3-2.4-1-.6-.6-1-1.4-1-2.4s.4-1.8 1-2.4zM33.8 8c-.3-.3-.6-.4-1-.4s-.7.1-1 .4c-.3.3-.4.6-.4 1.1 0 .4.1.8.4 1.1.3.3.6.4 1 .4s.7-.1 1-.4c.3-.3.4-.6.4-1.1 0-.5-.1-.8-.4-1.1zM41.1 5.7c.7 0 1.3.2 1.7.7.4.5.6 1.1.6 1.9v4h-2V8.7c0-.4-.1-.6-.2-.8-.1-.2-.4-.3-.8-.3-.8 0-1.2.4-1.2 1.3v3.4h-2V5.9h2v.7c.5-.6 1.1-.9 1.9-.9zM49.3 10.2l.3 1.6c-.2.1-.5.3-.9.4s-.8.2-1.1.2c-.7 0-1.3-.2-1.7-.6-.5-.4-.7-1.1-.7-2V7.7h-1.1V5.9h1.1V4.6l1.9-.4v1.7h2.2v1.9h-2.1v1.9c0 .6.3.9.8.9.2 0 .7-.1 1.3-.4z"
    />
</svg>
