<svg xmlns="http://www.w3.org/2000/svg" viewBox="-0.659 8.037 65.546 48.129">
    <g stroke-width=".5">
        <path fill="#00c492"
              d="M19.455 54.151a2.378 2.378 0 0 1-.127-.26 3.334 3.334 0 0 1-.226-1.88H3.972l22.485-39.57 7.382 12.977 2.14-3.787-6.435-11.336a3.933 3.933 0 0 0-3.14-2.074 3.496 3.496 0 0 0-3.048 2.1L.577 50.371a4.028 4.028 0 0 0-.2 3.78 3.505 3.505 0 0 0 3.334 1.608H22.79a3.496 3.496 0 0 1-3.334-1.608z"/>
        <path fill="#008776"
              d="M63.319 50.37 44.6 17.397a3.943 3.943 0 0 0-3.154-2.1A3.486 3.486 0 0 0 38.4 17.39l-2.421 4.24 2.154 3.788 3.333-5.901L59.985 52.01h-7.042a3.153 3.153 0 0 1-.147 1.6 2.029 2.029 0 0 1-.147.327l-.06.12a4.03 4.03 0 0 1-3.394 1.7h11.016a4.024 4.024 0 0 0 3.394-1.7 3.497 3.497 0 0 0-.286-3.687z"/>
        <path fill="#2d4a5d"
              d="m52.59 54.058.06-.12a2.029 2.029 0 0 0 .146-.327 3.153 3.153 0 0 0 .147-1.6 4.873 4.873 0 0 0-.614-1.64L38.147 25.418l-2.167-3.787-2.154 3.787-14.177 24.953a5.052 5.052 0 0 0-.547 1.64 3.334 3.334 0 0 0 .207 1.881 2.354 2.354 0 0 0 .127.26 3.505 3.505 0 0 0 3.334 1.607h26.405a4.04 4.04 0 0 0 3.414-1.7zM35.979 29.206 48.942 52.01h-25.92z"/>
    </g>
</svg>
